<svg width="341" height="45" viewBox="0 0 341 45" fill="none" xmlns="http://www.w3.org/2000/svg">
<path d="M10.1675 44.1325C6.2583 44.1325 3.17829 43.1258 1.1052 40.3427C1.1052 40.3427 0.0390429 38.6255 1.22366 37.5004C1.69751 37.0859 4.59983 34.1252 4.59983 34.1252C6.61368 37.1451 8.15369 37.9741 10.1675 37.9741C12.1814 37.9741 13.7806 37.4412 14.7876 36.2569C15.676 34.5397 14.3137 33.5922 14.3137 33.5922C14.3137 33.5922 8.80523 30.0986 3.88906 27.1378C-1.20481 23.881 1.22366 16.6568 1.22366 16.6568C3.47444 12.571 6.49522 10.9722 10.9375 10.9722C14.906 11.0314 18.223 12.3342 20.296 15.058C20.296 15.058 21.3622 16.7753 20.1776 17.9003C19.7037 18.3149 17.0383 21.1572 17.0383 21.1572C14.9652 18.1964 12.9514 17.1898 10.9968 17.1898C8.92369 17.1898 8.15369 17.5451 7.14676 19.0846C6.13983 20.6242 7.67984 21.7493 7.91676 21.8677C8.27215 22.0454 12.2999 24.4732 15.7945 26.4865C23.9684 31.1052 20.9476 37.9741 20.9476 37.9741C19.0522 41.3494 16.3276 44.1325 10.1675 44.1325Z" fill="#404040"/>
<path d="M49.8886 29.5656C49.8886 31.9934 47.4009 31.9934 47.4009 31.9934L30.5201 31.9342C31.4678 36.02 33.7778 37.8557 36.6209 37.8557C40.5893 37.8557 41.1224 35.6055 42.8401 35.6055L46.394 35.6647C47.9932 35.6647 48.2301 36.2569 47.934 37.5596C47.2824 40.2835 43.0178 44.1324 36.6209 44.1324C27.4993 44.1324 23.2939 36.3161 23.2939 27.6115C23.2939 18.8478 27.4993 11.0906 36.6209 11.0906C45.7424 11.0906 49.9478 18.8478 49.9478 27.6115C49.8886 28.2037 49.8886 29.5656 49.8886 29.5656ZM36.6209 17.249C33.3632 17.249 30.757 19.736 30.1647 25.3614H43.0178C42.4847 19.7952 39.8193 17.249 36.6209 17.249Z" fill="#404040"/>
<path d="M71.1295 42.356C68.9972 43.7771 66.4503 43.7771 65.1472 43.8364C64.318 43.8364 55.1964 43.8364 55.1964 32.5856V17.8411H53.0048C53.0048 17.8411 50.5172 17.9003 50.5172 15.4725V13.9922C50.5172 13.5777 50.6356 11.5051 53.0048 11.5051H55.2556V2.97823C55.2556 2.97823 55.1964 0.491211 57.6841 0.491211H59.5203C59.8756 0.491211 62.008 0.550424 62.008 2.97823V11.6236H68.7011C68.7011 11.6236 71.1888 11.5644 71.1888 14.0514V15.4725C71.1888 15.8278 71.1295 17.9595 68.7011 17.9595H61.8895V33.3554C61.8895 33.8883 61.9487 37.6188 64.7326 37.6188C66.0357 37.6188 66.9834 37.5004 67.7534 36.9674C67.7534 36.9674 69.7672 35.8424 71.1295 37.6188L71.8403 39.0992C71.9588 39.04 72.9657 41.1717 71.1295 42.356Z" fill="#404040"/>
<path d="M81.3862 42.6521C81.3862 42.6521 79.9054 44.4877 78.01 43.3627C76.1146 42.1191 73.6269 39.5729 73.6269 35.4279V2.97824C73.6269 2.97824 73.5677 0.432007 76.0554 0.432007H77.8915C78.2469 0.432007 80.3792 0.491222 80.3792 2.91902V36.02C80.3792 37.5004 81.3862 38.0925 81.3862 38.0925C81.3862 38.0925 83.4 39.4545 82.3338 41.4678L81.3862 42.6521Z" fill="#404040"/>
<path d="M92.9362 7.30085C92.877 9.66944 90.8631 9.78786 90.4485 9.78786H88.5531C86.0654 9.78786 86.1246 7.30085 86.1246 7.30085V5.99813C86.1839 3.57032 88.3162 3.51111 88.6123 3.51111H90.4485C92.9362 3.51111 92.877 6.05734 92.877 6.05734V7.30085H92.9362ZM92.9362 40.994C92.9362 43.3626 90.9223 43.481 90.5077 43.481H88.5531C86.1246 43.481 86.1839 40.994 86.1839 40.994V14.0513C86.1839 11.6235 88.3162 11.5643 88.6716 11.5643H90.567C93.0547 11.5643 92.9954 14.1105 92.9954 14.1105L92.9362 40.994Z" fill="#404040"/>
<path d="M106.191 44.1324C102.281 44.1324 99.2014 43.1258 97.1283 40.3427C97.1283 40.3427 96.0621 38.6255 97.2468 37.5004C97.7206 37.0859 100.623 34.1252 100.623 34.1252C102.637 37.1451 104.177 37.9741 106.191 37.9741C108.204 37.9741 109.804 37.4412 110.811 36.2569C111.699 34.5397 110.337 33.5922 110.337 33.5922C110.337 33.5922 104.828 30.0986 99.9122 27.1378C94.8183 23.9994 97.2468 16.716 97.2468 16.716C99.4975 12.6302 102.518 11.0314 106.961 11.0314C110.929 11.0906 114.246 12.3934 116.319 15.1172C116.319 15.1172 117.385 16.8345 116.201 17.9596C115.727 18.3741 113.061 21.2164 113.061 21.2164C110.988 18.2556 108.974 17.249 107.02 17.249C104.947 17.249 104.177 17.6043 103.17 19.1438C102.163 20.6834 103.703 21.8085 103.94 21.9269C104.295 22.1046 108.323 24.5324 111.818 26.5457C119.991 31.1644 116.971 38.0333 116.971 38.0333C115.135 41.3494 112.351 44.1324 106.191 44.1324Z" fill="#404040"/>
<path d="M139.547 42.356C137.415 43.7772 134.868 43.7772 133.565 43.8364C132.736 43.8364 123.614 43.8364 123.614 32.5856V17.8412H121.423C121.423 17.8412 118.935 17.9004 118.935 15.4726V13.9922C118.935 13.5777 119.053 11.5052 121.423 11.5052H123.673V2.97829C123.673 2.97829 123.614 0.491272 126.102 0.491272H127.938C128.293 0.491272 130.426 0.550485 130.426 2.97829V11.6236H137.178C137.178 11.6236 139.666 11.5644 139.666 14.0514V15.4726C139.666 15.8279 139.607 17.9596 137.178 17.9596H130.367V33.3554C130.367 33.8883 130.426 37.6189 133.21 37.6189C134.513 37.6189 135.46 37.5004 136.23 36.9675C136.23 36.9675 138.244 35.8424 139.607 37.6189L140.317 39.0992C140.377 39.04 141.383 41.1718 139.547 42.356Z" fill="#404040"/>
<path d="M146.895 42.1812C146.895 43.6501 145.476 43.5995 145.476 43.5995H143.804C142.386 43.5995 142.436 42.1306 142.436 42.1306C142.436 41.7253 142.436 41.2695 142.436 40.8643C142.538 40.0538 142.791 39.4966 143.855 39.4966H145.578C146.996 39.4966 146.946 40.9656 146.946 40.9656L146.895 42.1812Z" fill="#9CC134"/>
<path d="M162.691 18.6786C161.779 19.8942 160.461 19.1344 160.461 19.1344C159.904 18.8305 159.195 18.6786 158.435 18.6786C156.966 18.6786 154.483 19.8436 154.483 21.5151V23.4399H158.992C160.613 23.4399 160.613 24.8582 160.613 25.1114V26.0232C160.613 27.644 158.942 27.5934 158.942 27.5934H154.483V41.928C154.483 43.4982 153.166 43.5489 152.862 43.5489H151.595C149.974 43.5489 149.974 41.8773 149.974 41.8773V27.5427H148.504C146.934 27.5427 146.883 26.1751 146.883 25.9219V25.0101C146.883 23.3892 148.555 23.3892 148.555 23.3892H149.974V21.971C149.974 19.2864 152.456 17.0577 152.456 17.0577C153.723 15.994 156.003 14.5251 158.638 14.5251C159.549 14.5251 161.12 14.6264 162.488 15.4368C163.755 16.2473 163.096 17.6655 163.096 17.6655L162.691 18.6786Z" fill="#9CC134"/>
<path d="M191.267 43.4983H190.101C189.797 43.4983 188.48 43.4476 188.48 41.8774V32.76C188.48 27.7961 186.555 26.0232 183.92 26.0232C182.653 26.0232 181.64 26.4791 179.968 28.1V32.4054L180.019 41.8774C180.019 41.8774 180.069 43.549 178.397 43.549H177.181C176.877 43.549 175.56 43.4983 175.56 41.9281V32.4054V31.0885C175.155 27.5935 173.432 26.0232 171.101 26.0232C169.835 26.0232 168.821 26.4791 167.149 28.1V32.4054L167.2 41.8268C167.2 41.8268 167.251 43.4983 165.579 43.4983H164.312C164.008 43.4983 162.691 43.4476 162.691 41.8774L162.741 32.4054V28.3533C162.741 26.6311 165.224 24.453 165.224 24.453C166.491 23.3893 168.72 21.9711 171.355 21.9711C173.432 21.9711 175.813 22.7308 177.536 24.8582C177.739 24.6556 177.941 24.5037 177.992 24.453C179.259 23.1867 181.64 21.9204 184.173 21.9204C187.973 21.9204 192.888 24.5037 192.888 32.3548V41.8268C192.888 41.8268 192.939 43.4983 191.267 43.4983Z" fill="#9CC134"/>
<path d="M338.776 32.834L340.246 31.896L340.89 33.002L339.35 33.828L340.89 34.64L340.246 35.746L338.776 34.808L338.832 36.558H337.558L337.614 34.808L336.144 35.746L335.5 34.64L337.04 33.828L335.5 33.002L336.144 31.896L337.614 32.834L337.558 31.084H338.832L338.776 32.834Z" fill="#595959"/>
<path d="M330.249 41.052H328.303V31.084H330.249V41.052Z" fill="#595959"/>
<path d="M323.529 35.046L327.071 41.052H324.789L322.227 36.516L320.925 38.056V41.052H318.979V31.084H320.925V35.424L324.453 31.084H326.833L323.529 35.046Z" fill="#595959"/>
<path d="M316.645 41.052H314.699V31.084H316.645V41.052Z" fill="#595959"/>
<path d="M310.797 41.052H309.159L307.325 35.018L305.505 41.052H303.881L301.207 31.084H303.237L304.777 37.356L306.611 31.084H308.053L309.887 37.356L311.427 31.084H313.457L310.797 41.052Z" fill="#595959"/>
<path d="M297.623 32.82H295.019V41.052H293.073V32.82H290.469V31.084H297.623V32.82Z" fill="#595959"/>
<path d="M286.003 31C286.694 31 287.296 31.0887 287.809 31.266C288.323 31.4433 288.794 31.742 289.223 32.162L287.991 33.38C287.721 33.1093 287.427 32.9273 287.109 32.834C286.792 32.7407 286.405 32.694 285.947 32.694C285.425 32.694 285.037 32.82 284.785 33.072C284.533 33.3147 284.407 33.6087 284.407 33.954C284.407 34.2433 284.505 34.4813 284.701 34.668C284.804 34.7613 284.925 34.8407 285.065 34.906C285.215 34.9713 285.397 35.018 285.611 35.046L286.801 35.228C287.259 35.2933 287.637 35.3867 287.935 35.508C288.234 35.6293 288.491 35.7973 288.705 36.012C288.976 36.264 289.172 36.5673 289.293 36.922C289.415 37.2673 289.475 37.664 289.475 38.112C289.475 38.5973 289.382 39.0267 289.195 39.4C289.009 39.7733 288.747 40.0907 288.411 40.352C288.085 40.604 287.693 40.8 287.235 40.94C286.787 41.0707 286.302 41.136 285.779 41.136C285.023 41.136 284.347 41.0427 283.749 40.856C283.161 40.66 282.625 40.3147 282.139 39.82L283.399 38.56C283.717 38.8773 284.081 39.0967 284.491 39.218C284.902 39.3393 285.336 39.4 285.793 39.4C286.381 39.4 286.825 39.2927 287.123 39.078C287.422 38.8633 287.571 38.5553 287.571 38.154C287.571 37.8087 287.469 37.5333 287.263 37.328C287.161 37.2347 287.044 37.1647 286.913 37.118C286.792 37.0713 286.61 37.0293 286.367 36.992L285.177 36.81C284.328 36.6793 283.684 36.404 283.245 35.984C282.769 35.5267 282.531 34.8733 282.531 34.024C282.531 33.576 282.611 33.17 282.769 32.806C282.928 32.4327 283.157 32.1153 283.455 31.854C283.754 31.5833 284.118 31.3733 284.547 31.224C284.977 31.0747 285.462 31 286.003 31Z" fill="#595959"/>
<path d="M280.702 41.052H278.756V31.084H280.702V41.052Z" fill="#595959"/>
<path d="M272.649 39.316H277.171V41.052H270.703V31.084H272.649V39.316Z" fill="#595959"/>
<path d="M269.117 32.82H266.513V41.052H264.567V32.82H261.963V31.084H269.117V32.82Z" fill="#595959"/>
<path d="M260.795 32.82H256.175V35.158H260.123V36.894H256.175V39.316H260.795V41.052H254.229V31.084H260.795V32.82Z" fill="#595959"/>
<path d="M248.925 31C249.616 31 250.218 31.0887 250.731 31.266C251.244 31.4433 251.716 31.742 252.145 32.162L250.913 33.38C250.642 33.1093 250.348 32.9273 250.031 32.834C249.714 32.7407 249.326 32.694 248.869 32.694C248.346 32.694 247.959 32.82 247.707 33.072C247.455 33.3147 247.329 33.6087 247.329 33.954C247.329 34.2433 247.427 34.4813 247.623 34.668C247.726 34.7613 247.847 34.8407 247.987 34.906C248.136 34.9713 248.318 35.018 248.533 35.046L249.723 35.228C250.18 35.2933 250.558 35.3867 250.857 35.508C251.156 35.6293 251.412 35.7973 251.627 36.012C251.898 36.264 252.094 36.5673 252.215 36.922C252.336 37.2673 252.397 37.664 252.397 38.112C252.397 38.5973 252.304 39.0267 252.117 39.4C251.93 39.7733 251.669 40.0907 251.333 40.352C251.006 40.604 250.614 40.8 250.157 40.94C249.709 41.0707 249.224 41.136 248.701 41.136C247.945 41.136 247.268 41.0427 246.671 40.856C246.083 40.66 245.546 40.3147 245.061 39.82L246.321 38.56C246.638 38.8773 247.002 39.0967 247.413 39.218C247.824 39.3393 248.258 39.4 248.715 39.4C249.303 39.4 249.746 39.2927 250.045 39.078C250.344 38.8633 250.493 38.5553 250.493 38.154C250.493 37.8087 250.39 37.5333 250.185 37.328C250.082 37.2347 249.966 37.1647 249.835 37.118C249.714 37.0713 249.532 37.0293 249.289 36.992L248.099 36.81C247.25 36.6793 246.606 36.404 246.167 35.984C245.691 35.5267 245.453 34.8733 245.453 34.024C245.453 33.576 245.532 33.17 245.691 32.806C245.85 32.4327 246.078 32.1153 246.377 31.854C246.676 31.5833 247.04 31.3733 247.469 31.224C247.898 31.0747 248.384 31 248.925 31Z" fill="#595959"/>
<path d="M240.793 32.82H236.173V35.158H240.121V36.894H236.173V39.316H240.793V41.052H234.227V31.084H240.793V32.82Z" fill="#595959"/>
<path d="M231.909 41.052H229.963V36.88H226.575V41.052H224.629V31.084H226.575V35.144H229.963V31.084H231.909V41.052Z" fill="#595959"/>
<path d="M223.043 32.82H220.439V41.052H218.493V32.82H215.889V31.084H223.043V32.82Z" fill="#595959"/>
<path d="M209.276 32.834L210.746 31.896L211.39 33.002L209.85 33.828L211.39 34.64L210.746 35.746L209.276 34.808L209.332 36.558H208.058L208.114 34.808L206.644 35.746L206 34.64L207.54 33.828L206 33.002L206.644 31.896L208.114 32.834L208.058 31.084H209.332L209.276 32.834Z" fill="#595959"/>
</svg>
